# xmcd
#
# Track frame offsets:
#	150
#	16795
#	33310
#	48280
#	64375
#	81055
#	99052
#	112467
#	124010
#	138105
#	153820
#	167797
#	183715
#	221207
#
# Disc length: 4232 seconds
#
# Revision: 1
# Processed by: cddbd v1.5PL3 Copyright (c) Steve Scherf et al.
# Submitted via: audiograbber 1.83.01
#
DISCID=ba10860e
DTITLE=32-20 - and the dog that followed
DYEAR=1998
DGENRE=blues
TTITLE0=river
TTITLE1=i don't mind
TTITLE2=secrets and lies
TTITLE3=staten lisland ferry blues
TTITLE4=trains
TTITLE5=f.d.r.
TTITLE6=too tired
TTITLE7=morose irish waltz
TTITLE8=got to roll
TTITLE9=california
TTITLE10=seven eleven
TTITLE11=dream
TTITLE12=long long time
TTITLE13=bonus
EXTD=
EXTT0=
EXTT1=
EXTT2=
EXTT3=
EXTT4=
EXTT5=
EXTT6=
EXTT7=
EXTT8=
EXTT9=
EXTT10=
EXTT11=
EXTT12=
EXTT13=
PLAYORDER=
